<?xml version="1.0" encoding="utf-8"?>
<!-- Generator: Adobe Illustrator 13.0.0, SVG Export Plug-In  -->
<!DOCTYPE svg [
	<!ENTITY ns_flows "http://ns.adobe.com/Flows/1.0/">
]>
<svg version="1.2" baseProfile="tiny"
	 xmlns="http://www.w3.org/2000/svg" xmlns:xlink="http://www.w3.org/1999/xlink" xmlns:a="http://ns.adobe.com/AdobeSVGViewerExtensions/3.0/"
	 x="0px" y="0px" width="414px" height="81px" viewBox="0 0 414 81" xml:space="preserve">
<defs>
</defs>
<path fill-rule="evenodd" fill="#0056A2" d="M34.7,52.3L34.7,52.3c-1.8,1.5-2,4.1-0.5,5.9l14.4,17.4c1.6,1.9,4.3,2.1,6.2,0.5h0
	c1.9-1.6,2.1-4.3,0.5-6.2L40.6,52.8C39.1,51.1,36.5,50.8,34.7,52.3L34.7,52.3z"/>
<path fill="#0056A2" d="M0,62.8c0-2.3,1.9-4.3,4.3-4.3c2.3,0,4.3,1.9,4.3,4.3c0,2.3-1.9,4.3-4.3,4.3C1.9,67.1,0,65.2,0,62.8L0,62.8z
	"/>
<path fill-rule="evenodd" fill="#0056A2" d="M26.2,57.9L26.2,57.9c-2.1,0.6-3.4,2.7-2.8,4.8l3.9,15.1c0.6,2.2,2.9,3.5,5.1,2.9l0,0
	c2.2-0.6,3.5-2.9,2.9-5.1l-4.3-15C30.5,58.6,28.3,57.4,26.2,57.9L26.2,57.9z"/>
<path fill="#0056A2" d="M16.5,60.3L16.5,60.3c-2.1-0.4-4,1-4.4,3.1l-1.6,7.9c-0.4,2.2,1.1,4.2,3.2,4.6l0,0c2.2,0.4,4.2-1.1,4.6-3.2
	l1.2-8C20,62.6,18.6,60.6,16.5,60.3L16.5,60.3z"/>
<path fill="#80C342" d="M48.3,38.1l37.8,0.2c2.6,0,4.6-2.1,4.6-4.6s-2.1-4.6-4.6-4.6l-37.8,0.2c-2.4,0-4.4,2-4.4,4.4
	C43.9,36.2,45.9,38.1,48.3,38.1L48.3,38.1z"/>
<path fill="#80C342" d="M43.1,49.6l26.8,13c2.3,1.1,4.9,0.1,6-2.2c1.1-2.3,0.1-4.9-2.2-6l-27-12.5c-2.1-1-4.7-0.1-5.7,2.1
	C40,46.1,40.9,48.6,43.1,49.6L43.1,49.6z"/>
<path fill="#80C342" d="M90.6,8.8c2.3-0.9,3.5-3.6,2.6-5.9c-0.9-2.3-3.6-3.5-5.9-2.6l-42,16.8c-2.2,0.9-3.3,3.4-2.4,5.6
	c0.9,2.2,3.4,3.3,5.6,2.4L90.6,8.8L90.6,8.8z"/>
<polygon fill="#0056A2" points="159.9,54 159.9,17.6 154.1,17.6 154.1,43.3 134.4,17 129.2,18 129.2,54.3 135,54.3 135,28.4 
	154.9,55 159.9,54 "/>
<path fill-rule="evenodd" fill="#0056A2" d="M193.5,41.7c0-8.3-5.1-13.1-12.8-13.1c-7.2,0-12.7,5-12.7,13.5c0,7.8,5,12.8,12.6,12.8
	C188.1,54.9,193.5,49.7,193.5,41.7L193.5,41.7z M187.2,42c0,5.1-2.5,8-6.6,8c-4,0-6.4-3.3-6.4-8.3c0-5,2.7-8,6.5-8
	C184.7,33.7,187.2,36.9,187.2,42L187.2,42z"/>
<path fill="#0056A2" d="M216.8,29.5c0,0-1.2-0.8-3.5-0.8c-4.8,0-6.4,4.8-6.4,4.8v-4.2h-6.2v25h6.2V40.6c0-4.5,2.3-6,5-6
	c1.9,0,3.4,0.9,3.4,0.9L216.8,29.5L216.8,29.5z"/>
<path fill-rule="evenodd" fill="#0056A2" d="M244.8,54.3V15.2h-6.2v14.6c0,0-1.9-1.2-5.5-1.2c-6.7,0-12.1,4.9-12.1,13.7
	c0,8.5,4.7,12.5,10.2,12.5c4.9,0,6.9-3.6,7.4-4.5v3.9H244.8L244.8,54.3z M238.6,44.3c0,4.1-2.8,5.7-5.4,5.7c-2.4,0-6-1.8-6-8.5
	c0-4.7,2.4-8,6.7-8c3,0,4.6,1.3,4.6,1.3V44.3L238.6,44.3z"/>
<polygon fill="#0056A2" points="274.6,31.9 273.7,29.3 254.3,29.3 254.3,34.3 265.9,34.3 253.4,51.9 254.1,54.3 274.3,54.3 
	274.3,49.3 262.2,49.3 274.6,31.9 "/>
<path fill="#0056A2" d="M304,54.3v-25h-6.2v15c0,3.4-2.1,5.6-5.2,5.6c-3.6,0-4.8-2.2-4.8-5.5V29.3h-6.2v17.1c0,5.5,3.2,8.5,8.2,8.5
	c6.3,0,8-4.5,8-4.5v4H304L304,54.3z"/>
<path fill="#0056A2" d="M332.7,52.1l-1.8-4.7c0,0-2.3,2.3-6.4,2.3c-4.4,0-6.6-4.2-6.6-7.8c0-4.3,1.7-8.3,6.8-8.3c3.7,0,6,2.3,6,2.3
	l1.9-5.1c0,0-2.8-2.3-8.2-2.3c-8,0-12.8,5.7-12.8,13.4c0,8.5,5,12.9,11.8,12.9C329.4,54.9,332.7,52.1,332.7,52.1L332.7,52.1z"/>
<polygon fill="#0056A2" points="362.4,53.3 352.7,40.7 362.4,30.4 356.3,29 345.8,40.5 345.8,15.2 339.6,15.2 339.6,54.3 
	345.8,54.3 345.8,41.2 355.8,54.7 362.4,53.3 "/>
<path fill-rule="evenodd" fill="#0056A2" d="M389.8,42.4c0-8.7-3.1-13.7-10.9-13.7c-7.8,0-12.1,5.7-12.1,12.9
	c0,8.4,4.3,13.4,12.2,13.4c6.5,0,10.4-4.1,10.4-4.1l-2.5-4.3c0,0-2.9,3.2-7.4,3.2c-4.9,0-6.8-4.4-6.8-7.4H389.8L389.8,42.4z
	 M383.4,38.2H373c0-0.8,0.9-4.9,5.4-4.9C383.1,33.2,383.4,37,383.4,38.2L383.4,38.2z"/>
<path fill="#0056A2" d="M413.2,29.5c0,0-1.2-0.8-3.5-0.8c-4.8,0-6.4,4.8-6.4,4.8v-4.2h-6.2v25h6.2V40.6c0-4.5,2.3-6,5-6
	c1.9,0,3.4,0.9,3.4,0.9L413.2,29.5L413.2,29.5z"/>
</svg>
