<?xml version="1.0" encoding="utf-8"?>
<!-- Generator: Adobe Illustrator 13.0.0, SVG Export Plug-In  -->
<!DOCTYPE svg [
	<!ENTITY ns_flows "http://ns.adobe.com/Flows/1.0/">
]>
<svg version="1.2" baseProfile="tiny"
	 xmlns="http://www.w3.org/2000/svg" xmlns:xlink="http://www.w3.org/1999/xlink" xmlns:a="http://ns.adobe.com/AdobeSVGViewerExtensions/3.0/"
	 x="0px" y="0px" width="465px" height="99px" viewBox="0 0 465 99" xml:space="preserve">
<defs>
</defs>
<polyline fill="#0056A2" points="151.9,91.6 148.4,73.5 146.1,73.5 140.3,87 134.7,73.5 132.2,73.5 128.9,91.6 131.9,91.8 134,80 
	138.8,91.6 141.3,91.6 146.3,80 148.6,91.8 151.9,91.6 "/>
<path fill="#0056A2" d="M162.1,83.7h-5.2c0-0.4,0.4-2.4,2.7-2.4C161.9,81.2,162.1,83.1,162.1,83.7L162.1,83.7z M165.2,85.7
	c0-4.3-1.5-6.8-5.4-6.8c-3.8,0-6,2.8-6,6.4c0,4.1,2.1,6.6,6,6.6c3.2,0,5.2-2,5.2-2l-1.2-2.1c0,0-1.4,1.6-3.6,1.6
	c-2.4,0-3.4-2.2-3.4-3.6H165.2"/>
<path fill="#0056A2" d="M186.5,91.6v-8.8c0-2.4-1.7-3.9-4.3-3.9c-2.4,0-3.7,1.4-4.1,2.2c-0.6-1.4-1.9-2.2-3.8-2.2
	c-2.9,0-3.8,2.1-3.8,2.1v-1.7h-3.1v12.4h3.1v-7.6c0-1.5,1.1-2.6,2.5-2.6c1.7,0,2.4,1.1,2.4,2.9v7.3h3v-7.4c0-1.7,1.2-2.7,2.5-2.7
	c1.7,0,2.4,1.1,2.4,2.9v7.3H186.5"/>
<path fill="#0056A2" d="M198.3,85.5c0,2.6-1.4,4.1-3.3,4.1c-1.5,0-2.3-0.8-2.3-0.8v-6c0,0,0.8-1.2,2.6-1.2
	C196.9,81.7,198.3,83,198.3,85.5L198.3,85.5z M201.4,85c0-4.5-2.7-6-5-6c-2.6,0-3.7,1.5-3.7,1.5v-8.2h-3.1v18.1c0,0,1.9,1.4,5.2,1.4
	C198.5,91.9,201.4,89.4,201.4,85"/>
<path fill="#0056A2" d="M211.3,83.7h-5.2c0-0.4,0.4-2.4,2.7-2.4C211.1,81.2,211.3,83.1,211.3,83.7L211.3,83.7z M214.4,85.7
	c0-4.3-1.5-6.8-5.4-6.8c-3.8,0-6,2.8-6,6.4c0,4.1,2.1,6.6,6,6.6c3.2,0,5.2-2,5.2-2l-1.2-2.1c0,0-1.4,1.6-3.6,1.6
	c-2.4,0-3.4-2.2-3.4-3.6H214.4"/>
<path fill="#0056A2" d="M224.7,79.4c0,0-0.6-0.4-1.7-0.4c-2.4,0-3.2,2.3-3.2,2.3v-2.1h-3.1v12.4h3.1v-6.8c0-2.2,1.1-3,2.5-3
	c0.9,0,1.7,0.4,1.7,0.4L224.7,79.4"/>
<path fill="#0056A2" d="M240.3,85.6c0,2.5-1.2,4-3.3,4c-2,0-3.2-1.6-3.2-4.1c0-2.5,1.3-4,3.2-4C239.1,81.5,240.3,83,240.3,85.6
	L240.3,85.6z M243.5,85.4c0-4.1-2.5-6.5-6.3-6.5c-3.6,0-6.3,2.5-6.3,6.6c0,3.9,2.5,6.3,6.2,6.3S243.5,89.3,243.5,85.4"/>
<path fill="#0056A2" d="M254,72.7c0,0-1.1-0.6-2.9-0.6c-3,0-4.9,1.7-4.9,5.7v1.5h-1.8v2.2h1.8v10.1h3.1V81.5h3.2v-2.2h-3.2v-1.7
	c0-2.1,0.7-2.9,1.9-2.9c1.1,0,2.1,0.6,2.1,0.6L254,72.7"/>
<polyline fill="#0056A2" points="276.1,91.5 276.1,73.5 273.2,73.5 273.2,86.2 263.5,73.2 260.9,73.7 260.9,91.6 263.8,91.6 
	263.8,78.8 273.6,92 276.1,91.5 "/>
<path fill="#0056A2" d="M288.2,85.6c0,2.5-1.2,4-3.3,4c-2,0-3.2-1.6-3.2-4.1c0-2.5,1.3-4,3.2-4C287,81.5,288.2,83,288.2,85.6
	L288.2,85.6z M291.3,85.4c0-4.1-2.5-6.5-6.3-6.5c-3.6,0-6.3,2.5-6.3,6.6c0,3.9,2.5,6.3,6.2,6.3C288.7,91.9,291.3,89.3,291.3,85.4"/>
<path fill="#0056A2" d="M301.8,79.4c0,0-0.6-0.4-1.7-0.4c-2.4,0-3.2,2.3-3.2,2.3v-2.1h-3.1v12.4h3.1v-6.8c0-2.2,1.1-3,2.5-3
	c0.9,0,1.7,0.4,1.7,0.4L301.8,79.4"/>
<path fill="#0056A2" d="M311.3,86.7c0,2-1.4,2.8-2.6,2.8c-1.2,0-2.9-0.9-2.9-4.2c0-2.3,1.2-3.9,3.3-3.9c1.5,0,2.3,0.6,2.3,0.6V86.7
	L311.3,86.7z M314.3,91.6V72.3h-3.1v7.2c0,0-0.9-0.6-2.7-0.6c-3.3,0-6,2.4-6,6.8c0,4.2,2.3,6.2,5,6.2c2.4,0,3.4-1.8,3.6-2.2v1.9
	H314.3"/>
<polyline fill="#0056A2" points="327.2,80.6 326.8,79.3 317.2,79.3 317.2,81.8 322.9,81.8 316.8,90.4 317.1,91.6 327.1,91.6 
	327.1,89.2 321.1,89.2 327.2,80.6 "/>
<path fill="#0056A2" d="M340.4,91.6V79.3h-3.1v7.4c0,1.7-1,2.7-2.6,2.7c-1.8,0-2.3-1.1-2.3-2.7v-7.5h-3.1v8.4c0,2.7,1.6,4.2,4.1,4.2
	c3.1,0,4-2.2,4-2.2v2H340.4"/>
<path fill="#0056A2" d="M353.3,90.5l-0.9-2.3c0,0-1.1,1.1-3.2,1.1c-2.2,0-3.3-2.1-3.3-3.8c0-2.1,0.8-4.1,3.4-4.1c1.8,0,3,1.1,3,1.1
	l1-2.5c0,0-1.4-1.1-4.1-1.1c-4,0-6.3,2.8-6.3,6.6c0,4.2,2.5,6.4,5.8,6.4C351.7,91.9,353.3,90.5,353.3,90.5"/>
<polyline fill="#0056A2" points="366.7,91.1 361.9,84.9 366.7,79.8 363.6,79.1 358.5,84.8 358.5,72.3 355.4,72.3 355.4,91.6 
	358.5,91.6 358.5,85.2 363.4,91.8 366.7,91.1 "/>
<path fill="#0056A2" d="M375.8,83.7h-5.2c0-0.4,0.4-2.4,2.7-2.4C375.6,81.2,375.8,83.1,375.8,83.7L375.8,83.7z M378.9,85.7
	c0-4.3-1.5-6.8-5.4-6.8s-6,2.8-6,6.4c0,4.1,2.1,6.6,6,6.6c3.2,0,5.2-2,5.2-2l-1.2-2.1c0,0-1.4,1.6-3.6,1.6c-2.4,0-3.4-2.2-3.4-3.6
	H378.9"/>
<path fill="#0056A2" d="M389.2,79.4c0,0-0.6-0.4-1.7-0.4c-2.3,0-3.1,2.3-3.1,2.3v-2.1h-3.1v12.4h3.1v-6.8c0-2.2,1.1-3,2.5-3
	c0.9,0,1.7,0.4,1.7,0.4L389.2,79.4"/>
<path fill="#0056A2" d="M411.5,90.3v-7.4h-3v5.8c0,0-0.9,0.6-3,0.6c-3.5,0-6.6-2-6.6-6.6c0-4.5,2.6-6.6,6.1-6.6
	c2.6,0,4.6,1.3,4.6,1.3l0.9-3c0,0-1.9-1.2-5.6-1.2c-4.8,0-9.4,3.2-9.4,9.5c0,6.9,4.9,9.3,9.5,9.3C409.3,92,411.5,90.3,411.5,90.3"/>
<path fill="#0056A2" d="M422.7,79.4c0,0-0.6-0.4-1.7-0.4c-2.3,0-3.1,2.3-3.1,2.3v-2.1h-3.1v12.4h3.1v-6.8c0-2.2,1.1-3,2.5-3
	c0.9,0,1.7,0.4,1.7,0.4L422.7,79.4"/>
<path fill="#0056A2" d="M433,85.6c0,2.5-1.2,4-3.3,4c-2,0-3.2-1.6-3.2-4.1c0-2.5,1.3-4,3.2-4C431.7,81.5,433,83,433,85.6L433,85.6z
	 M436.1,85.4c0-4.1-2.5-6.5-6.3-6.5c-3.6,0-6.3,2.5-6.3,6.6c0,3.9,2.5,6.3,6.2,6.3S436.1,89.3,436.1,85.4"/>
<path fill="#0056A2" d="M449.5,91.6V79.3h-3.1v7.4c0,1.7-1,2.7-2.6,2.7c-1.8,0-2.3-1.1-2.3-2.7v-7.5h-3.1v8.4c0,2.7,1.6,4.2,4.1,4.2
	c3.1,0,4-2.2,4-2.2v2H449.5"/>
<g>
	<path fill="none" d="M458.4,81.7c-1.9,0-2.6,1.3-2.6,1.3v5.6c0,0,0.8,1,2.4,1c2,0,3.2-1.6,3.2-4.1
		C461.4,83.1,460.2,81.7,458.4,81.7z"/>
	<path fill="#0056A2" d="M459.5,79c-2.7,0-3.8,1.9-3.8,1.9v-1.6h-3v19.3h3.1v-7.4c0,0,1,0.8,2.8,0.8c3.2,0,6-2.7,6-6.8
		C464.5,80.9,462.2,79,459.5,79z M458.2,89.6c-1.6,0-2.4-1-2.4-1V83c0,0,0.7-1.3,2.6-1.3c1.8,0,3,1.4,3,3.8
		C461.4,88,460.2,89.6,458.2,89.6z"/>
</g>
<path fill="#0056A2" d="M34.7,52.3c-1.8,1.5-2,4.1-0.5,5.9l14.4,17.3c1.6,1.8,4.3,2.1,6.2,0.5c1.9-1.6,2.1-4.3,0.5-6.2l-14.7-17
	C39,51,36.4,50.8,34.7,52.3"/>
<path fill="#0056A2" d="M0,62.7c0-2.3,1.9-4.2,4.2-4.2s4.2,1.9,4.2,4.2c0,2.3-1.9,4.2-4.2,4.2S0,65.1,0,62.7"/>
<path fill="#0056A2" d="M26.1,57.8c-2.1,0.6-3.4,2.7-2.8,4.8l3.9,15.1c0.6,2.2,2.9,3.5,5.1,2.9c2.2-0.6,3.5-2.9,2.9-5.1l-4.3-15
	C30.4,58.5,28.3,57.3,26.1,57.8"/>
<path fill="#0056A2" d="M16.5,60.2L16.5,60.2c-2.1-0.4-4,1-4.4,3l-1.6,7.9c-0.4,2.2,1.1,4.2,3.2,4.6l0,0c2.2,0.4,4.2-1.1,4.6-3.2
	l1.2-8C19.9,62.5,18.6,60.5,16.5,60.2"/>
<path fill="#79B93E" d="M48.3,38.1L86,38.3c2.6,0,4.6-2.1,4.6-4.6c0-2.6-2.1-4.6-4.6-4.6l-37.8,0.2c-2.4,0-4.4,2-4.4,4.4
	C43.9,36.1,45.8,38.1,48.3,38.1"/>
<path fill="#79B93E" d="M43,49.6l26.8,12.9c2.3,1.1,4.9,0.1,6-2.2c1.1-2.3,0.1-4.9-2.2-6l-27-12.5c-2.1-1-4.7-0.1-5.7,2.1
	C39.9,46,40.9,48.6,43,49.6"/>
<path fill="#79B93E" d="M87.1,0.3L45.2,17.1C43,18,42,20.5,42.8,22.7c0.9,2.2,3.4,3.3,5.6,2.4L90.5,8.8c2.3-0.9,3.5-3.6,2.5-5.9
	C92.1,0.5,89.5-0.6,87.1,0.3z"/>
<polyline fill="#0056A2" points="154.6,54.9 134.8,28.4 134.8,54.3 129,54.3 129,18 134.2,17 153.8,43.3 153.8,17.6 159.6,17.6 
	159.6,53.9 154.6,54.9 "/>
<path fill="#0056A2" d="M179,33.7c-3.9,0-6.5,3-6.5,8c0,5,2.4,8.3,6.4,8.3c4.1,0,6.6-2.9,6.6-8C185.5,36.8,183,33.7,179,33.7
	L179,33.7z M178.8,54.8c-7.5,0-12.5-4.9-12.5-12.7c0-8.5,5.5-13.4,12.7-13.4c7.7,0,12.8,4.8,12.8,13.1
	C191.8,49.6,186.3,54.8,178.8,54.8"/>
<path fill="#0056A2" d="M212.8,35.4c0,0-1.5-0.9-3.4-0.9c-2.7,0-5,1.5-5,6v13.7h-6.2v-25h6.2v4.2c0,0,1.6-4.8,6.4-4.8
	c2.2,0,3.5,0.8,3.5,0.8L212.8,35.4"/>
<path fill="#0056A2" d="M233.8,34.8c0,0-1.6-1.3-4.6-1.3c-4.3,0-6.7,3.3-6.7,7.9c0,6.7,3.6,8.5,5.9,8.5c2.5,0,5.3-1.6,5.3-5.7V34.8
	L233.8,34.8z M233.8,54.3v-3.9c-0.5,0.9-2.4,4.5-7.3,4.5c-5.5,0-10.2-3.9-10.2-12.5c0-8.8,5.5-13.7,12.1-13.7c3.6,0,5.5,1.2,5.5,1.2
	V15.2h6.2v39.1H233.8"/>
<path fill="#0056A2" d="M254.7,54.3h-6.2v-25h6.2V54.3z M248.5,54.3L248.5,54.3z M251.6,25.5c-2.1,0-3.8-1.5-3.8-3.7
	c0-2.3,1.7-3.8,3.8-3.8c2.1,0,3.8,1.6,3.8,3.8C255.4,24,253.7,25.5,251.6,25.5"/>
<path fill="#0056A2" d="M282.6,52c0,0-3.2,2.8-9.1,2.8c-6.9,0-11.8-4.4-11.8-12.8c0-7.7,4.8-13.3,12.7-13.3c5.4,0,8.2,2.3,8.2,2.3
	l-1.9,5.1c0,0-2.3-2.3-6-2.3c-5.1,0-6.8,4-6.8,8.3c0,3.6,2.2,7.8,6.6,7.8c4,0,6.4-2.3,6.4-2.3L282.6,52"/>
<path fill="#0056A2" d="M314.3,25.9c0,0-3.9-3-8.7-3c-3.2,0-5.2,1.5-5.2,3.7c0,3.2,3.7,4.5,7.6,6.4c4.3,1.9,8.9,4.5,8.9,10.9
	c0,6.5-5.2,11.1-12.4,11.1c-6.8,0-11.7-3-11.7-3l1.4-6.7c0,0,4.5,4,10.2,4c3.6,0,5.9-1.7,5.9-4.5c0-3.9-3.8-5.2-7.8-7
	c-4.3-1.9-8.6-4.3-8.6-10.6c0-5.2,4.5-9.9,12-9.9c6.2,0,9.9,2.3,9.9,2.3L314.3,25.9"/>
<path fill="#0056A2" d="M339.7,54.3v-4c0,0-1.7,4.5-8,4.5c-5,0-8.2-3-8.2-8.5V29.3h6.2v15.1c0,3.3,1.2,5.5,4.8,5.5
	c3.1,0,5.2-2.2,5.2-5.6v-15h6.2v25H339.7"/>
<path fill="#0056A2" d="M363.2,33.2c-2.9,0-4.5,2-4.5,4.8c0,2.7,1.6,4.8,4.4,4.8c2.8,0,4.4-1.9,4.4-4.8
	C367.5,35.2,366.1,33.2,363.2,33.2L363.2,33.2z M366.4,56.9c-2.6-0.6-4.1-0.8-4.1-0.8c-2.8,0-5,1.6-5,4c0,2.9,3.2,4.3,6.5,4.3
	c3.9,0,7-1.5,7-4.2C370.8,58.1,368.7,57.5,366.4,56.9L366.4,56.9z M372,33.1c0,0,1.7,1.6,1.7,4.9c0,5-3.6,8.3-9.5,9.1
	c-2,0.2-3.8,0.6-3.8,1.7c0,1.1,2.7,1.8,7.4,2.6c5.6,1,9,2.7,9,7.3c0,6.1-5.9,9.9-13.7,9.9c-6.9,0-11.3-2.9-11.3-7.3
	c0-4.9,5.6-6.2,6.4-6.4c-0.6-0.2-3.7-1.2-3.7-4c0-2.6,3.4-3.9,4.7-4.4c-4.8-1.5-6.6-4.9-6.6-8.7c0-5.8,4.6-9.3,10.3-9.3
	c3.1,0,5.2,0.9,5.2,0.9h8.8v3.8L372,33.1"/>
<path fill="#0056A2" d="M393.2,43c-4.4,0-8.1,0.5-8.1,4c0,2.4,1.7,3.4,3.5,3.4c2.1,0,4.6-1.3,4.6-4.9V43L393.2,43z M393.2,54.3v-3.8
	c-0.5,1.3-2.6,4.3-6.5,4.3c-4.2,0-7.5-2.5-7.5-7.1c0-7.6,7.6-8.3,14-8.3v-1.4c0-2.3-1.1-4.4-4.8-4.4c-3.8,0-6.7,2.9-6.7,2.9
	l-1.8-4.5c0,0,3.7-3.3,9.8-3.3c3.5,0,9.2,1,9.2,8.1v17.5H393.2"/>
<path fill="#0056A2" d="M421.7,35.4c0,0-1.5-0.9-3.4-0.9c-2.7,0-5,1.5-5,6v13.7h-6.2v-25h6.2v4.2c0,0,1.6-4.8,6.4-4.8
	c2.2,0,3.5,0.8,3.5,0.8L421.7,35.4"/>
</svg>
