<?xml version="1.0" encoding="utf-8"?>
<!-- Generator: Adobe Illustrator 13.0.0, SVG Export Plug-In  -->
<!DOCTYPE svg [
	<!ENTITY ns_flows "http://ns.adobe.com/Flows/1.0/">
]>
<svg version="1.2" baseProfile="tiny"
	 xmlns="http://www.w3.org/2000/svg" xmlns:xlink="http://www.w3.org/1999/xlink" xmlns:a="http://ns.adobe.com/AdobeSVGViewerExtensions/3.0/"
	 x="0px" y="0px" width="580px" height="99px" viewBox="0 0 580 99" xml:space="preserve">
<defs>
</defs>
<path fill-rule="evenodd" fill="#0056A2" d="M34.7,52.3L34.7,52.3c-1.8,1.5-2,4.1-0.5,5.9l14.4,17.4c1.6,1.9,4.3,2.1,6.2,0.5h0
	c1.9-1.6,2.1-4.3,0.5-6.2L40.6,52.8C39.1,51.1,36.5,50.8,34.7,52.3L34.7,52.3z"/>
<path fill="#0056A2" d="M0,62.8c0-2.3,1.9-4.3,4.3-4.3c2.3,0,4.3,1.9,4.3,4.3c0,2.3-1.9,4.3-4.3,4.3C1.9,67.1,0,65.2,0,62.8L0,62.8z
	"/>
<path fill-rule="evenodd" fill="#0056A2" d="M26.2,57.9L26.2,57.9c-2.1,0.6-3.4,2.7-2.8,4.8l3.9,15.1c0.6,2.2,2.9,3.5,5.1,2.9l0,0
	c2.2-0.6,3.5-2.9,2.9-5.1l-4.3-15C30.5,58.6,28.3,57.4,26.2,57.9L26.2,57.9z"/>
<path fill="#0056A2" d="M16.5,60.3L16.5,60.3c-2.1-0.4-4,1-4.4,3.1l-1.6,7.9c-0.4,2.2,1.1,4.2,3.2,4.6l0,0c2.2,0.4,4.2-1.1,4.6-3.2
	l1.2-8C20,62.6,18.6,60.6,16.5,60.3L16.5,60.3z"/>
<path fill="#80C342" d="M48.3,38.1l37.8,0.2c2.6,0,4.6-2.1,4.6-4.6s-2.1-4.6-4.6-4.6l-37.8,0.2c-2.4,0-4.4,2-4.4,4.4
	C43.9,36.2,45.9,38.1,48.3,38.1L48.3,38.1z"/>
<path fill="#80C342" d="M43.1,49.6l26.8,13c2.3,1.1,4.9,0.1,6-2.2c1.1-2.3,0.1-4.9-2.2-6l-27-12.5c-2.1-1-4.7-0.1-5.7,2.1
	C40,46.1,40.9,48.6,43.1,49.6L43.1,49.6z"/>
<path fill="#80C342" d="M90.6,8.8c2.3-0.9,3.5-3.6,2.6-5.9c-0.9-2.3-3.6-3.5-5.9-2.6l-42,16.8c-2.2,0.9-3.3,3.4-2.4,5.6
	c0.9,2.2,3.4,3.3,5.6,2.4L90.6,8.8L90.6,8.8z"/>
<polygon fill="#0056A2" points="152.8,91.7 149.3,73.6 146.9,73.6 141.2,87.1 135.5,73.6 133.1,73.6 129.8,91.7 132.8,91.9 
	134.9,80.1 139.7,91.8 142.2,91.8 147.2,80.2 149.5,91.9 152.8,91.7 "/>
<path fill-rule="evenodd" fill="#0056A2" d="M166.1,85.9c0-4.3-1.5-6.8-5.4-6.8c-3.8,0-6,2.8-6,6.4c0,4.1,2.1,6.6,6,6.6
	c3.2,0,5.2-2,5.2-2l-1.2-2.1c0,0-1.4,1.6-3.6,1.6c-2.4,0-3.4-2.2-3.4-3.6H166.1L166.1,85.9z M163,83.8h-5.2c0-0.4,0.4-2.4,2.7-2.4
	C162.8,81.4,163,83.2,163,83.8L163,83.8z"/>
<path fill="#0056A2" d="M187.4,91.8V83c0-2.4-1.7-3.9-4.3-3.9c-2.4,0-3.7,1.4-4.1,2.2c-0.6-1.4-1.9-2.2-3.8-2.2
	c-2.9,0-3.8,2.1-3.8,2.1v-1.7h-3.1v12.4h3.1v-7.6c0-1.5,1.1-2.6,2.5-2.6c1.7,0,2.4,1.1,2.4,2.9v7.3h3v-7.4c0-1.7,1.2-2.7,2.5-2.7
	c1.7,0,2.4,1.1,2.4,2.9v7.3H187.4L187.4,91.8z"/>
<path fill-rule="evenodd" fill="#0056A2" d="M202.3,85.1c0-4.5-2.7-6-5-6c-2.6,0-3.7,1.5-3.7,1.5v-8.2h-3.1v18.1
	c0,0,1.9,1.4,5.2,1.4C199.4,92,202.3,89.5,202.3,85.1L202.3,85.1z M199.2,85.7c0,2.6-1.4,4.1-3.3,4.1c-1.5,0-2.3-0.8-2.3-0.8v-6
	c0,0,0.8-1.2,2.6-1.2C197.8,81.8,199.2,83.1,199.2,85.7L199.2,85.7z"/>
<path fill-rule="evenodd" fill="#0056A2" d="M215.3,85.9c0-4.3-1.5-6.8-5.4-6.8c-3.8,0-6,2.8-6,6.4c0,4.1,2.1,6.6,6,6.6
	c3.2,0,5.2-2,5.2-2l-1.2-2.1c0,0-1.4,1.6-3.6,1.6c-2.4,0-3.4-2.2-3.4-3.6H215.3L215.3,85.9z M212.2,83.8H207c0-0.4,0.4-2.4,2.7-2.4
	C212,81.4,212.2,83.2,212.2,83.8L212.2,83.8z"/>
<path fill="#0056A2" d="M225.6,79.5c0,0-0.6-0.4-1.7-0.4c-2.3,0-3.2,2.3-3.2,2.3v-2.1h-3.1v12.4h3.1V85c0-2.2,1.1-3,2.5-3
	c0.9,0,1.7,0.4,1.7,0.4L225.6,79.5L225.6,79.5z"/>
<path fill-rule="evenodd" fill="#0056A2" d="M244.3,85.6c0-4.1-2.5-6.5-6.3-6.5c-3.6,0-6.3,2.5-6.3,6.6c0,3.9,2.5,6.3,6.2,6.3
	C241.7,92,244.3,89.5,244.3,85.6L244.3,85.6z M241.2,85.7c0,2.5-1.2,4-3.3,4c-2,0-3.2-1.6-3.2-4.1c0-2.5,1.3-4,3.2-4
	C240,81.6,241.2,83.2,241.2,85.7L241.2,85.7z"/>
<path fill="#0056A2" d="M254.9,72.8c0,0-1.1-0.6-2.9-0.6c-3,0-4.9,1.7-4.9,5.7v1.5h-1.8v2.2h1.8v10.1h3.1V81.7h3.2v-2.2h-3.2v-1.7
	c0-2.1,0.7-2.9,1.9-2.9c1.1,0,2.1,0.6,2.1,0.6L254.9,72.8L254.9,72.8z"/>
<polygon fill="#0056A2" points="277,91.6 277,73.6 274.1,73.6 274.1,86.3 264.4,73.4 261.8,73.8 261.8,91.8 264.7,91.8 264.7,79 
	274.5,92.1 277,91.6 "/>
<path fill-rule="evenodd" fill="#0056A2" d="M292.2,85.6c0-4.1-2.5-6.5-6.3-6.5c-3.6,0-6.3,2.5-6.3,6.6c0,3.9,2.5,6.3,6.2,6.3
	C289.5,92,292.2,89.5,292.2,85.6L292.2,85.6z M289.1,85.7c0,2.5-1.2,4-3.3,4c-2,0-3.2-1.6-3.2-4.1c0-2.5,1.3-4,3.2-4
	C287.9,81.6,289.1,83.2,289.1,85.7L289.1,85.7z"/>
<path fill="#0056A2" d="M302.7,79.5c0,0-0.6-0.4-1.7-0.4c-2.3,0-3.2,2.3-3.2,2.3v-2.1h-3.1v12.4h3.1V85c0-2.2,1.1-3,2.5-3
	c0.9,0,1.7,0.4,1.7,0.4L302.7,79.5L302.7,79.5z"/>
<path fill-rule="evenodd" fill="#0056A2" d="M315.2,91.8V72.5h-3.1v7.2c0,0-0.9-0.6-2.7-0.6c-3.3,0-6,2.4-6,6.8c0,4.2,2.3,6.2,5,6.2
	c2.4,0,3.4-1.8,3.6-2.2v1.9H315.2L315.2,91.8z M312.2,86.8c0,2-1.4,2.8-2.6,2.8c-1.2,0-2.9-0.9-2.9-4.2c0-2.3,1.2-3.9,3.3-3.9
	c1.5,0,2.3,0.6,2.3,0.6V86.8L312.2,86.8z"/>
<polygon fill="#0056A2" points="328.1,80.7 327.7,79.4 318.1,79.4 318.1,81.9 323.8,81.9 317.7,90.6 318,91.8 328,91.8 328,89.3 
	322,89.3 328.1,80.7 "/>
<path fill="#0056A2" d="M341.3,91.8V79.4h-3.1v7.4c0,1.7-1,2.8-2.6,2.8c-1.8,0-2.3-1.1-2.3-2.7v-7.5h-3.1v8.4c0,2.7,1.6,4.2,4.1,4.2
	c3.1,0,4-2.2,4-2.2v2H341.3L341.3,91.8z"/>
<path fill="#0056A2" d="M354.2,90.7l-0.9-2.3c0,0-1.1,1.1-3.2,1.1c-2.2,0-3.3-2.1-3.3-3.8c0-2.1,0.8-4.1,3.4-4.1c1.8,0,3,1.1,3,1.1
	l1-2.5c0,0-1.4-1.1-4.1-1.1c-4,0-6.3,2.8-6.3,6.6c0,4.2,2.5,6.4,5.8,6.4C352.6,92,354.2,90.7,354.2,90.7L354.2,90.7z"/>
<polygon fill="#0056A2" points="367.6,91.3 362.8,85.1 367.6,80 364.5,79.3 359.4,85 359.4,72.5 356.3,72.5 356.3,91.8 359.4,91.8 
	359.4,85.3 364.3,92 367.6,91.3 "/>
<path fill-rule="evenodd" fill="#0056A2" d="M379.8,85.9c0-4.3-1.5-6.8-5.4-6.8c-3.8,0-6,2.8-6,6.4c0,4.1,2.1,6.6,6,6.6
	c3.2,0,5.2-2,5.2-2l-1.2-2.1c0,0-1.4,1.6-3.6,1.6c-2.4,0-3.4-2.2-3.4-3.6H379.8L379.8,85.9z M376.7,83.8h-5.2c0-0.4,0.4-2.4,2.7-2.4
	C376.5,81.4,376.7,83.2,376.7,83.8L376.7,83.8z"/>
<path fill="#0056A2" d="M390.1,79.5c0,0-0.6-0.4-1.7-0.4c-2.3,0-3.2,2.3-3.2,2.3v-2.1h-3.1v12.4h3.1V85c0-2.2,1.1-3,2.5-3
	c0.9,0,1.7,0.4,1.7,0.4L390.1,79.5L390.1,79.5z"/>
<path fill="#0056A2" d="M412.4,90.4V83h-3v5.8c0,0-0.9,0.6-3,0.6c-3.5,0-6.6-2-6.6-6.6c0-4.5,2.6-6.6,6.1-6.6c2.6,0,4.6,1.3,4.6,1.3
	l0.9-3c0,0-1.9-1.2-5.6-1.2c-4.8,0-9.4,3.2-9.4,9.5c0,6.9,4.9,9.3,9.5,9.3C410.1,92.1,412.4,90.4,412.4,90.4L412.4,90.4z"/>
<path fill="#0056A2" d="M423.6,79.5c0,0-0.6-0.4-1.7-0.4c-2.3,0-3.2,2.3-3.2,2.3v-2.1h-3.1v12.4h3.1V85c0-2.2,1.1-3,2.5-3
	c0.9,0,1.7,0.4,1.7,0.4L423.6,79.5L423.6,79.5z"/>
<path fill-rule="evenodd" fill="#0056A2" d="M437,85.6c0-4.1-2.5-6.5-6.3-6.5c-3.6,0-6.3,2.5-6.3,6.6c0,3.9,2.5,6.3,6.2,6.3
	S437,89.5,437,85.6L437,85.6z M433.9,85.7c0,2.5-1.2,4-3.3,4c-2,0-3.2-1.6-3.2-4.1c0-2.5,1.3-4,3.2-4
	C432.6,81.6,433.9,83.2,433.9,85.7L433.9,85.7z"/>
<path fill="#0056A2" d="M450.4,91.8V79.4h-3.1v7.4c0,1.7-1,2.8-2.6,2.8c-1.8,0-2.3-1.1-2.3-2.7v-7.5h-3.1v8.4c0,2.7,1.6,4.2,4.1,4.2
	c3.1,0,4-2.2,4-2.2v2H450.4L450.4,91.8z"/>
<path fill-rule="evenodd" fill="#0056A2" d="M465.4,85.2c0-4.2-2.4-6.1-5-6.1c-2.7,0-3.8,1.9-3.8,1.9v-1.6h-3v19.3h3.1v-7.4
	c0,0,1,0.8,2.8,0.8C462.7,92,465.4,89.4,465.4,85.2L465.4,85.2z M462.3,85.6c0,2.5-1.2,4.1-3.2,4.1c-1.6,0-2.4-1-2.4-1v-5.6
	c0,0,0.7-1.3,2.6-1.3C461.1,81.8,462.3,83.2,462.3,85.6L462.3,85.6z"/>
<polygon fill="#0056A2" points="159.9,54 159.9,17.6 154.1,17.6 154.1,43.3 134.4,17 129.2,18 129.2,54.3 135,54.3 135,28.4 
	154.9,55 159.9,54 "/>
<path fill-rule="evenodd" fill="#0056A2" d="M193.5,41.7c0-8.3-5.1-13.1-12.8-13.1c-7.2,0-12.7,5-12.7,13.5c0,7.8,5,12.8,12.6,12.8
	C188.1,54.9,193.5,49.7,193.5,41.7L193.5,41.7z M187.2,42c0,5.1-2.5,8-6.6,8c-4,0-6.4-3.3-6.4-8.3c0-5,2.7-8,6.5-8
	C184.7,33.7,187.2,36.9,187.2,42L187.2,42z"/>
<path fill="#0056A2" d="M216.8,29.5c0,0-1.2-0.8-3.5-0.8c-4.8,0-6.4,4.8-6.4,4.8v-4.2h-6.2v25h6.2V40.6c0-4.5,2.3-6,5-6
	c1.9,0,3.4,0.9,3.4,0.9L216.8,29.5L216.8,29.5z"/>
<path fill-rule="evenodd" fill="#0056A2" d="M244.8,54.3V15.2h-6.2v14.6c0,0-1.9-1.2-5.5-1.2c-6.7,0-12.1,4.9-12.1,13.7
	c0,8.5,4.7,12.5,10.2,12.5c4.9,0,6.9-3.6,7.4-4.5v3.9H244.8L244.8,54.3z M238.6,44.3c0,4.1-2.8,5.7-5.4,5.7c-2.4,0-6-1.8-6-8.5
	c0-4.7,2.4-8,6.7-8c3,0,4.6,1.3,4.6,1.3V44.3L238.6,44.3z"/>
<polygon fill="#0056A2" points="274.6,31.9 273.7,29.3 254.3,29.3 254.3,34.3 265.9,34.3 253.4,51.9 254.1,54.3 274.3,54.3 
	274.3,49.3 262.2,49.3 274.6,31.9 "/>
<path fill="#0056A2" d="M304,54.3v-25h-6.2v15c0,3.4-2.1,5.6-5.2,5.6c-3.6,0-4.8-2.2-4.8-5.5V29.3h-6.2v17.1c0,5.5,3.2,8.5,8.2,8.5
	c6.3,0,8-4.5,8-4.5v4H304L304,54.3z"/>
<path fill="#0056A2" d="M332.7,52.1l-1.8-4.7c0,0-2.3,2.3-6.4,2.3c-4.4,0-6.6-4.2-6.6-7.8c0-4.3,1.7-8.3,6.8-8.3c3.7,0,6,2.3,6,2.3
	l1.9-5.1c0,0-2.8-2.3-8.2-2.3c-8,0-12.8,5.7-12.8,13.4c0,8.5,5,12.9,11.8,12.9C329.4,54.9,332.7,52.1,332.7,52.1L332.7,52.1z"/>
<polygon fill="#0056A2" points="362.4,53.3 352.7,40.7 362.4,30.4 356.3,29 345.8,40.5 345.8,15.2 339.6,15.2 339.6,54.3 
	345.8,54.3 345.8,41.2 355.8,54.7 362.4,53.3 "/>
<path fill-rule="evenodd" fill="#0056A2" d="M389.8,42.4c0-8.7-3.1-13.7-10.9-13.7c-7.8,0-12.1,5.7-12.1,12.9
	c0,8.4,4.3,13.4,12.2,13.4c6.5,0,10.4-4.1,10.4-4.1l-2.5-4.3c0,0-2.9,3.2-7.4,3.2c-4.9,0-6.8-4.4-6.8-7.4H389.8L389.8,42.4z
	 M383.4,38.2H373c0-0.8,0.9-4.9,5.4-4.9C383.1,33.2,383.4,37,383.4,38.2L383.4,38.2z"/>
<path fill="#0056A2" d="M413.2,29.5c0,0-1.2-0.8-3.5-0.8c-4.8,0-6.4,4.8-6.4,4.8v-4.2h-6.2v25h6.2V40.6c0-4.5,2.3-6,5-6
	c1.9,0,3.4,0.9,3.4,0.9L413.2,29.5L413.2,29.5z"/>
<path fill-rule="evenodd" fill="#0056A2" d="M454.9,27.9c0-7.3-4.6-10.7-12.2-10.7c-4.5,0-10.1,0.5-10.1,0.5v36.6h6.3V39.4
	c0,0,1.7,0.3,4.5,0.3C449.4,39.7,454.9,35.8,454.9,27.9L454.9,27.9z M448.6,28.3c0,3.6-2.2,6.3-5.8,6.3c-2.3,0-3.8-0.5-3.8-0.5V22.9
	c0,0,1.5-0.3,3.6-0.3C446.3,22.6,448.6,24.7,448.6,28.3L448.6,28.3z"/>
<path fill-rule="evenodd" fill="#0056A2" d="M483.8,41.7c0-8.3-5.1-13.1-12.8-13.1c-7.2,0-12.7,5-12.7,13.5c0,7.8,5,12.8,12.6,12.8
	C478.3,54.9,483.8,49.7,483.8,41.7L483.8,41.7z M477.5,42c0,5.1-2.5,8-6.6,8c-4,0-6.4-3.3-6.4-8.3c0-5,2.7-8,6.5-8
	C475,33.7,477.5,36.9,477.5,42L477.5,42z"/>
<polygon fill="#0056A2" points="497.6,54.3 497.6,15.2 491.4,15.2 491.4,54.3 497.6,54.3 "/>
<path fill="#0056A2" d="M523.7,46.5c0-4.5-3.3-6.3-6.4-7.4c-2.6-1-5.1-1.5-5.1-3.4c0-1.5,1.1-2.2,3.2-2.2c3.6,0,6.5,2.1,6.5,2.1
	l1.1-5.4c0,0-2.9-1.6-7.4-1.6c-4.8,0-9.3,2.8-9.3,7.6c0,4.4,2.9,6.3,5.8,7.4c3.3,1.3,5.8,1.7,5.8,3.8c0,1.7-1.3,2.5-3.6,2.5
	c-3.7,0-7.6-3-7.6-3l-1.1,5.7c0,0,3.8,2.2,8.4,2.2C519.6,54.9,523.7,51.7,523.7,46.5L523.7,46.5z"/>
<polygon fill="#0056A2" points="554.1,53.3 544.4,40.7 554.1,30.4 548,29 537.5,40.5 537.5,15.2 531.3,15.2 531.3,54.3 537.5,54.3 
	537.5,41.2 547.5,54.7 554.1,53.3 "/>
<path fill-rule="evenodd" fill="#0056A2" d="M579.3,54.3V36.8c0-7.1-5.8-8.1-9.3-8.1c-6.1,0-9.8,3.4-9.8,3.4l1.8,4.5
	c0,0,2.9-2.9,6.7-2.9c3.7,0,4.8,2.1,4.8,4.4v1.4c-6.4,0-14,0.8-14,8.3c0,4.5,3.3,7.1,7.5,7.1c3.9,0,6.1-3,6.5-4.3v3.8H579.3
	L579.3,54.3z M573.6,45.6c0,3.6-2.5,4.9-4.6,4.9c-1.8,0-3.5-1-3.5-3.4c0-3.5,3.7-4,8.1-4V45.6L573.6,45.6z"/>
</svg>
