<?xml version="1.0" encoding="utf-8"?>
<!-- Generator: Adobe Illustrator 13.0.0, SVG Export Plug-In  -->
<!DOCTYPE svg [
	<!ENTITY ns_flows "http://ns.adobe.com/Flows/1.0/">
]>
<svg version="1.2" baseProfile="tiny"
	 xmlns="http://www.w3.org/2000/svg" xmlns:xlink="http://www.w3.org/1999/xlink" xmlns:a="http://ns.adobe.com/AdobeSVGViewerExtensions/3.0/"
	 x="0px" y="0px" width="496px" height="100px" viewBox="0 -1 496 100" xml:space="preserve">
<defs>
</defs>
<path fill-rule="evenodd" fill="#0056A2" d="M34.7,52.3L34.7,52.3c-1.8,1.5-2,4.1-0.5,5.9l14.4,17.4c1.6,1.9,4.3,2.1,6.2,0.5h0
	c1.9-1.6,2.1-4.3,0.5-6.2L40.6,52.8C39.1,51.1,36.5,50.8,34.7,52.3L34.7,52.3z"/>
<path fill="#0056A2" d="M0,62.8c0-2.3,1.9-4.3,4.3-4.3c2.3,0,4.3,1.9,4.3,4.3c0,2.3-1.9,4.3-4.3,4.3C1.9,67.1,0,65.2,0,62.8L0,62.8z
	"/>
<path fill-rule="evenodd" fill="#0056A2" d="M26.2,57.9L26.2,57.9c-2.1,0.6-3.4,2.7-2.8,4.8l3.9,15.1c0.6,2.2,2.9,3.5,5.1,2.9l0,0
	c2.2-0.6,3.5-2.9,2.9-5.1l-4.3-15C30.5,58.6,28.3,57.4,26.2,57.9L26.2,57.9z"/>
<path fill="#0056A2" d="M16.5,60.3L16.5,60.3c-2.1-0.4-4,1-4.4,3.1l-1.6,7.9c-0.4,2.2,1.1,4.2,3.2,4.6l0,0c2.2,0.4,4.2-1.1,4.6-3.2
	l1.2-8C20,62.6,18.6,60.6,16.5,60.3L16.5,60.3z"/>
<path fill="#80C342" d="M48.3,38.1l37.8,0.2c2.6,0,4.6-2.1,4.6-4.6s-2.1-4.6-4.6-4.6l-37.8,0.2c-2.4,0-4.4,2-4.4,4.4
	C43.9,36.2,45.9,38.1,48.3,38.1L48.3,38.1z"/>
<path fill="#80C342" d="M43.1,49.6l26.8,13c2.3,1.1,4.9,0.1,6-2.2c1.1-2.3,0.1-4.9-2.2-6l-27-12.5c-2.1-1-4.7-0.1-5.7,2.1
	C40,46.1,40.9,48.6,43.1,49.6L43.1,49.6z"/>
<path fill="#80C342" d="M90.6,8.8c2.3-0.9,3.5-3.6,2.6-5.9c-0.9-2.3-3.6-3.5-5.9-2.6l-42,16.8c-2.2,0.9-3.3,3.4-2.4,5.6
	s3.4,3.3,5.6,2.4L90.6,8.8L90.6,8.8z"/>
<polygon fill="#0056A2" points="151.6,91.7 148.1,73.6 145.8,73.6 140,87.1 134.4,73.6 132,73.6 128.7,91.7 131.7,91.9 133.7,80.1 
	138.6,91.8 141.1,91.8 146.1,80.1 148.4,91.9 151.6,91.7 "/>
<path fill-rule="evenodd" fill="#0056A2" d="M164.8,85.8c0-4.3-1.5-6.7-5.4-6.7c-1.7,0-3.3,0.6-4.2,1.7c-1.1,1.1-1.7,2.7-1.7,4.6
	c0,4.1,2.1,6.6,6,6.6c3.2,0,5.2-2.1,5.2-2.1l-1.2-2.1c0,0-1.4,1.6-3.6,1.6c-2.4,0-3.3-2.2-3.3-3.7H164.8L164.8,85.8z M161.8,83.8
	h-5.2c0-0.4,0.4-2.5,2.7-2.5C161.6,81.3,161.8,83.2,161.8,83.8L161.8,83.8z"/>
<path fill="#0056A2" d="M186.3,91.8V83c0-2.5-1.7-3.9-4.3-3.9c-2.4,0-3.7,1.5-4.1,2.2c-0.6-1.4-1.8-2.2-3.8-2.2
	c-2.9,0-3.8,2.1-3.8,2.1v-1.8h-3.1v12.4h3.1v-7.6c0-1.6,1.1-2.6,2.5-2.6c1.7,0,2.4,1.1,2.4,2.9v7.3h3v-7.5c0-1.7,1.2-2.7,2.5-2.7
	c1.7,0,2.4,1.1,2.4,2.9v7.3H186.3L186.3,91.8z"/>
<path fill-rule="evenodd" fill="#0056A2" d="M201.1,85.1c0-4.5-2.6-6-5-6c-2.6,0-3.7,1.5-3.7,1.5v-8.1h-3v18.1c0,0,2,1.4,5.2,1.4
	C198.3,92,201.1,89.5,201.1,85.1L201.1,85.1z M198,85.7c0,2.6-1.4,4.1-3.3,4.1c-1.5,0-2.3-0.8-2.3-0.8v-5.9c0,0,1-1.3,2.7-1.3
	C196.7,81.8,198,83.1,198,85.7L198,85.7z"/>
<path fill-rule="evenodd" fill="#0056A2" d="M214.2,85.8c0-4.3-1.5-6.7-5.4-6.7c-1.7,0-3.3,0.6-4.2,1.7c-1.1,1.1-1.7,2.7-1.7,4.6
	c0,4.1,2.1,6.6,6,6.6c3.2,0,5.2-2.1,5.2-2.1l-1.2-2.1c0,0-1.4,1.6-3.6,1.6c-2.4,0-3.3-2.2-3.3-3.7H214.2L214.2,85.8z M211.1,83.8
	h-5.2c0-0.4,0.4-2.5,2.7-2.5C210.9,81.3,211.1,83.2,211.1,83.8L211.1,83.8z"/>
<path fill="#0056A2" d="M224.6,79.5c0,0-0.6-0.4-1.7-0.4c-2.3,0-3.1,2.3-3.1,2.3v-2h-3.1v12.4h3.1V85c0-2.2,1.2-3,2.4-3
	c1,0,1.7,0.5,1.7,0.5L224.6,79.5L224.6,79.5z"/>
<path fill-rule="evenodd" fill="#0056A2" d="M243.4,85.4c0-3.9-2.5-6.3-6.3-6.3c-3.5,0-6.3,2.5-6.3,6.7c0,3.7,2.4,6.2,6.2,6.2
	C240.6,92,243.4,89.3,243.4,85.4L243.4,85.4z M240.3,85.7c0,2.5-1.3,4-3.3,4c-2,0-3.2-1.6-3.2-4.1c0-2.5,1.3-4,3.3-4
	C239,81.6,240.3,83.1,240.3,85.7L240.3,85.7z"/>
<path fill="#0056A2" d="M253.9,72.8c0,0-1.1-0.6-2.9-0.6c-3,0-4.9,1.7-4.9,5.7v1.5h-1.8v2.2h1.8v10.1h3V81.6h3.2v-2.2h-3.2v-1.7
	c0-2.1,0.7-2.9,2-2.9c1.1,0,2.1,0.6,2.1,0.6L253.9,72.8L253.9,72.8z"/>
<polygon fill="#0056A2" points="276,91.6 276,73.6 273.1,73.6 273.1,86.4 263.3,73.3 260.8,73.8 260.8,91.8 263.7,91.8 263.7,79.1 
	273.5,92.1 276,91.6 "/>
<path fill-rule="evenodd" fill="#0056A2" d="M291.4,85.4c0-3.9-2.5-6.3-6.3-6.3c-3.5,0-6.3,2.5-6.3,6.7c0,3.7,2.4,6.2,6.2,6.2
	C288.7,92,291.4,89.3,291.4,85.4L291.4,85.4z M288.4,85.7c0,2.5-1.3,4-3.3,4c-2,0-3.2-1.6-3.2-4.1c0-2.5,1.3-4,3.3-4
	C287.1,81.6,288.4,83.1,288.4,85.7L288.4,85.7z"/>
<path fill="#0056A2" d="M301.9,79.5c0,0-0.6-0.4-1.7-0.4c-2.3,0-3.1,2.3-3.1,2.3v-2H294v12.4h3.1V85c0-2.2,1.2-3,2.4-3
	c1,0,1.7,0.5,1.7,0.5L301.9,79.5L301.9,79.5z"/>
<path fill-rule="evenodd" fill="#0056A2" d="M314.3,91.8V72.5h-3v7.2c0,0-0.9-0.6-2.7-0.6c-3.3,0-6,2.4-6,6.8c0,4.2,2.3,6.1,5,6.1
	c2.4,0,3.4-1.8,3.6-2.2v1.9H314.3L314.3,91.8z M311.3,86.8c0,2-1.4,2.8-2.6,2.8c-1.2,0-2.9-0.9-2.9-4.2c0-1.3,0.4-2.4,1-3.1
	c0.6-0.6,1.3-0.9,2.3-0.9c1.4,0,2.2,0.6,2.2,0.6V86.8L311.3,86.8z"/>
<polygon fill="#0056A2" points="327.2,80.7 326.8,79.4 317.2,79.4 317.2,81.9 323.1,81.9 316.8,90.6 317.1,91.8 327,91.8 327,89.3 
	320.9,89.3 327.2,80.7 "/>
<path fill="#0056A2" d="M340.2,91.8V79.4h-3v7.4c0,1.7-1.1,2.7-2.6,2.7c-1.7,0-2.3-1-2.3-2.7v-7.5h-3v8.4c0,2.7,1.6,4.2,4.1,4.2
	c3.1,0,3.9-2.3,3.9-2.3v2H340.2L340.2,91.8z"/>
<path fill="#0056A2" d="M353.1,90.6l-0.9-2.3c0,0-1.1,1.1-3.1,1.1c-2.2,0-3.3-2.1-3.3-3.8c0-2.1,0.8-4.1,3.3-4.1c1.8,0,3,1.2,3,1.2
	l1-2.5c0,0-1.4-1.1-4-1.1c-1.5,0-2.9,0.4-3.9,1.2c-1.5,1.2-2.4,3.1-2.4,5.4c0,4.2,2.5,6.3,5.8,6.3C351.6,92,353.1,90.6,353.1,90.6
	L353.1,90.6z"/>
<polygon fill="#0056A2" points="366.5,91.3 361.8,85.1 366.5,80 363.5,79.2 358.4,84.9 358.4,72.5 355.3,72.5 355.3,91.8 
	358.4,91.8 358.4,85.3 363.3,91.9 366.5,91.3 "/>
<path fill-rule="evenodd" fill="#0056A2" d="M378.4,85.8c0-4.3-1.5-6.7-5.4-6.7c-1.7,0-3.3,0.6-4.2,1.7c-1.1,1.1-1.7,2.7-1.7,4.6
	c0,4.1,2.1,6.6,6,6.6c3.2,0,5.2-2.1,5.2-2.1l-1.2-2.1c0,0-1.4,1.6-3.6,1.6c-2.4,0-3.3-2.2-3.3-3.7H378.4L378.4,85.8z M375.3,83.8
	h-5.2c0-0.4,0.4-2.5,2.7-2.5C375.1,81.3,375.3,83.2,375.3,83.8L375.3,83.8z"/>
<path fill="#0056A2" d="M388.8,79.5c0,0-0.6-0.4-1.7-0.4c-2.3,0-3.1,2.3-3.1,2.3v-2h-3.1v12.4h3.1V85c0-2.2,1.2-3,2.4-3
	c1,0,1.7,0.5,1.7,0.5L388.8,79.5L388.8,79.5z"/>
<path fill="#0056A2" d="M411.2,90.4V83h-3v5.8c0,0-0.9,0.6-3,0.6c-3.5,0-6.6-2-6.6-6.6c0-4.5,2.6-6.6,6.1-6.6c2.6,0,4.6,1.3,4.6,1.3
	l0.9-3c0,0-1.9-1.2-5.6-1.2c-4.8,0-9.4,3.2-9.4,9.5c0,6.9,4.9,9.3,9.5,9.3C408.9,92.1,411.2,90.4,411.2,90.4L411.2,90.4z"/>
<path fill="#0056A2" d="M422.5,79.5c0,0-0.6-0.4-1.7-0.4c-2.3,0-3.1,2.3-3.1,2.3v-2h-3.1v12.4h3.1V85c0-2.2,1.2-3,2.4-3
	c1,0,1.7,0.5,1.7,0.5L422.5,79.5L422.5,79.5z"/>
<path fill-rule="evenodd" fill="#0056A2" d="M435.8,85.4c0-3.9-2.5-6.3-6.3-6.3c-3.5,0-6.3,2.5-6.3,6.7c0,3.7,2.4,6.2,6.2,6.2
	C433.1,92,435.8,89.3,435.8,85.4L435.8,85.4z M432.7,85.7c0,2.5-1.3,4-3.3,4c-2,0-3.2-1.6-3.2-4.1c0-2.5,1.3-4,3.3-4
	C431.4,81.6,432.7,83.1,432.7,85.7L432.7,85.7z"/>
<path fill="#0056A2" d="M449.2,91.8V79.4h-3v7.4c0,1.7-1.1,2.7-2.6,2.7c-1.7,0-2.3-1-2.3-2.7v-7.5h-3v8.4c0,2.7,1.6,4.2,4.1,4.2
	c3.1,0,3.9-2.3,3.9-2.3v2H449.2L449.2,91.8z"/>
<path fill-rule="evenodd" fill="#0056A2" d="M464.4,85.2c0-4.3-2.3-6.1-5-6.1s-3.8,1.8-3.8,1.8v-1.5h-3v19.3h3.1v-7.4
	c0,0,0.9,0.8,2.7,0.8C461.7,92,464.4,89.3,464.4,85.2L464.4,85.2z M461.3,85.6c0,2.5-1.3,4.1-3.2,4.1c-1.6,0-2.4-1-2.4-1v-5.4
	c0,0,0.7-1.5,2.6-1.5C459.9,81.8,461.3,83.2,461.3,85.6L461.3,85.6z"/>
<path fill-rule="evenodd" fill="#0056A2" d="M151.4,27.9c0-7.4-4.6-10.7-12.1-10.7c-4.6,0-10.1,0.5-10.1,0.5v36.6h6.3V39.4
	c0,0,1.6,0.3,4.4,0.3C145.8,39.7,151.4,35.7,151.4,27.9L151.4,27.9z M145.1,28.3c0,3.7-2.3,6.2-5.8,6.2c-2.3,0-3.8-0.5-3.8-0.5V23
	c0,0,1.5-0.3,3.6-0.3C142.8,22.7,145.1,24.7,145.1,28.3L145.1,28.3z"/>
<path fill-rule="evenodd" fill="#0056A2" d="M180,41.5c0-8-5.1-12.8-12.8-12.8c-7.1,0-12.7,5.1-12.7,13.6c0,7.5,4.9,12.5,12.5,12.5
	C174.4,54.9,180,49.4,180,41.5L180,41.5z M173.7,42c0,5.1-2.6,8-6.7,8c-4,0-6.5-3.2-6.5-8.3c0-5.1,2.7-8.1,6.6-8.1
	C171.1,33.7,173.7,36.8,173.7,42L173.7,42z"/>
<polygon fill="#0056A2" points="208.6,29.5 202.7,29.1 196.2,46.6 189.9,29.1 183.7,29.5 193.3,54.3 198.6,54.3 208.6,29.5 "/>
<path fill-rule="evenodd" fill="#0056A2" d="M232.7,54.3V36.8c0-7.1-5.8-8.1-9.3-8.1c-6.1,0-9.8,3.4-9.8,3.4l1.8,4.5
	c0,0,2.9-2.9,6.7-2.9c3.7,0,4.8,2.1,4.8,4.4v1.4c-6.4,0-14,0.8-14,8.3c0,4.5,3.3,7.1,7.5,7.1c3.9,0,6.1-3,6.5-4.3v3.8H232.7
	L232.7,54.3z M227,45.6c0,3.6-2.5,4.9-4.6,4.9c-1.8,0-3.5-1-3.5-3.4c0-3.5,3.7-4,8.1-4V45.6L227,45.6z"/>
<polygon fill="#0056A2" points="260.5,31.8 259.6,29.3 240.2,29.3 240.2,34.3 252.2,34.3 239.3,51.9 240,54.3 260,54.3 260,49.3 
	247.7,49.3 260.5,31.8 "/>
<path fill="#0056A2" d="M284.1,46.5c0-4.5-3.3-6.1-6.4-7.2c-2.7-1-5.1-1.7-5.1-3.6c0-1.4,1.2-2.2,3.5-2.2c3.4,0,6.4,2,6.4,2l1.2-5.3
	c0,0-3-1.6-7.5-1.6c-4.8,0-9.3,2.7-9.3,7.5c0,4.4,2.9,6.1,5.8,7.2c2.9,1.2,5.8,1.8,5.8,4.1c0,1.5-1.3,2.4-3.7,2.4
	c-3.7,0-7.6-3-7.6-3l-1.1,5.6c0,0,3.7,2.2,8.4,2.2C280,54.9,284.1,51.7,284.1,46.5L284.1,46.5z"/>
<polygon fill="#0056A2" points="314.5,53.3 304.8,40.8 314.5,30.4 308.4,28.9 298,40.5 298,15.2 291.7,15.2 291.7,54.3 298,54.3 
	298,41.2 307.9,54.7 314.5,53.3 "/>
<path fill="#0056A2" d="M343.6,29.5l-6-0.5l-6.8,18l-6.5-18l-6.5,0.4l8.4,21.9h2.7l-3.2,7.6c-1,2.4-2.6,4.2-4.7,4.2
	c-1.2,0-2.8-0.5-2.8-0.5l-0.4,5.1c0,0,2.2,0.6,3.9,0.6c4.1,0,6.9-2.4,9.3-8.4L343.6,29.5L343.6,29.5z"/>
<path fill="#0056A2" d="M382.4,52l-1.8-4.6c0,0-2.3,2.3-6.3,2.3c-4.5,0-6.6-4.2-6.6-7.7c0-4.3,1.7-8.4,6.8-8.4c3.7,0,6,2.4,6,2.4
	l1.9-5.1c0,0-2.8-2.2-8.2-2.2c-3.1,0-5.8,0.9-7.9,2.5c-3.1,2.4-4.9,6.3-4.9,11c0,8.4,5,12.7,11.8,12.7C379.2,54.9,382.4,52,382.4,52
	L382.4,52z"/>
<path fill="#0056A2" d="M411.1,54.3v-25h-6.2v15c0,3.5-2.2,5.6-5.2,5.6c-3.4,0-4.8-2.1-4.8-5.4V29.3h-6.2v17.1
	c0,5.5,3.2,8.5,8.2,8.5c6.2,0,7.9-4.7,7.9-4.7v4.1H411.1L411.1,54.3z"/>
<polygon fill="#0056A2" points="443.1,53.3 433.5,40.8 443.1,30.4 437,28.9 426.6,40.5 426.6,15.2 420.4,15.2 420.4,54.3 
	426.6,54.3 426.6,41.2 436.5,54.7 443.1,53.3 "/>
<path fill-rule="evenodd" fill="#0056A2" d="M472.1,41.5c0-8-5.1-12.8-12.8-12.8c-7.1,0-12.7,5.1-12.7,13.6
	c0,7.5,4.9,12.5,12.5,12.5C466.6,54.9,472.1,49.4,472.1,41.5L472.1,41.5z M465.9,42c0,5.1-2.6,8-6.7,8c-4,0-6.5-3.2-6.5-8.3
	c0-5.1,2.7-8.1,6.6-8.1C463.3,33.7,465.9,36.8,465.9,42L465.9,42z"/>
<path fill="#0056A2" d="M495.9,29.4c0,0-1.2-0.8-3.5-0.8c-4.7,0-6.3,4.6-6.3,4.6v-4h-6.2v25h6.2V40.6c0-4.5,2.4-6.1,4.9-6.1
	c2.1,0,3.5,0.9,3.5,0.9L495.9,29.4L495.9,29.4z"/>
<polygon fill="#0056A2" points="240.8,18.4 248,26.3 251.8,26.3 259.2,18.3 256.9,15.9 250,21.4 243.1,15.9 240.8,18.4 "/>
<polygon fill="#0056A2" points="338.6,20.3 334.9,16 326.1,24.9 328.3,27.5 338.6,20.3 "/>
</svg>
