<?xml version="1.0" encoding="utf-8"?>
<!-- Generator: Adobe Illustrator 13.0.0, SVG Export Plug-In  -->
<!DOCTYPE svg [
	<!ENTITY ns_flows "http://ns.adobe.com/Flows/1.0/">
]>
<svg version="1.2" baseProfile="tiny"
	 xmlns="http://www.w3.org/2000/svg" xmlns:xlink="http://www.w3.org/1999/xlink" xmlns:a="http://ns.adobe.com/AdobeSVGViewerExtensions/3.0/"
	 x="0px" y="0px" width="465px" height="100px" viewBox="0 -1 465 100" xml:space="preserve">
<defs>
</defs>
<path fill-rule="evenodd" fill="#0056A2" d="M34.7,52.3L34.7,52.3c-1.8,1.5-2,4.1-0.5,5.9l14.4,17.4c1.6,1.9,4.3,2.1,6.2,0.5h0
	c1.9-1.6,2.1-4.3,0.5-6.2L40.6,52.8C39.1,51.1,36.5,50.8,34.7,52.3L34.7,52.3z"/>
<path fill="#0056A2" d="M0,62.8c0-2.3,1.9-4.3,4.3-4.3c2.3,0,4.3,1.9,4.3,4.3c0,2.3-1.9,4.3-4.3,4.3C1.9,67.1,0,65.2,0,62.8L0,62.8z
	"/>
<path fill-rule="evenodd" fill="#0056A2" d="M26.2,57.9L26.2,57.9c-2.1,0.6-3.4,2.7-2.8,4.8l3.9,15.1c0.6,2.2,2.9,3.5,5.1,2.9l0,0
	c2.2-0.6,3.5-2.9,2.9-5.1l-4.3-15C30.5,58.6,28.3,57.4,26.2,57.9L26.2,57.9z"/>
<path fill="#0056A2" d="M16.5,60.3L16.5,60.3c-2.1-0.4-4,1-4.4,3.1l-1.6,7.9c-0.4,2.2,1.1,4.2,3.2,4.6l0,0c2.2,0.4,4.2-1.1,4.6-3.2
	l1.2-8C20,62.6,18.6,60.6,16.5,60.3L16.5,60.3z"/>
<path fill="#80C342" d="M48.3,38.1l37.8,0.2c2.6,0,4.6-2.1,4.6-4.6s-2.1-4.6-4.6-4.6l-37.8,0.2c-2.4,0-4.4,2-4.4,4.4
	C43.9,36.2,45.9,38.1,48.3,38.1L48.3,38.1z"/>
<path fill="#80C342" d="M43.1,49.6l26.8,13c2.3,1.1,4.9,0.1,6-2.2c1.1-2.3,0.1-4.9-2.2-6l-27-12.5c-2.1-1-4.7-0.1-5.7,2.1
	C40,46.1,40.9,48.6,43.1,49.6L43.1,49.6z"/>
<path fill="#80C342" d="M90.6,8.8c2.3-0.9,3.5-3.6,2.6-5.9c-0.9-2.3-3.6-3.5-5.9-2.6l-42,16.8c-2.2,0.9-3.3,3.4-2.4,5.6
	s3.4,3.3,5.6,2.4L90.6,8.8L90.6,8.8z"/>
<polygon fill="#0056A2" points="151.6,91.7 148.1,73.6 145.8,73.6 140,87.1 134.4,73.6 132,73.6 128.7,91.7 131.7,91.9 133.7,80.1 
	138.6,91.8 141.1,91.8 146.1,80.2 148.3,91.9 151.6,91.7 "/>
<path fill="#0056A2" d="M164.9,85.9c0-4.3-1.5-6.8-5.4-6.8s-6,2.8-6,6.4c0,4.1,2.1,6.6,6,6.6c3.2,0,5.2-2,5.2-2l-1.2-2.1
	c0,0-1.4,1.6-3.6,1.6c-2.4,0-3.4-2.2-3.4-3.6H164.9L164.9,85.9z M161.8,83.8h-5.2c0-0.4,0.4-2.4,2.7-2.4
	C161.6,81.4,161.8,83.2,161.8,83.8L161.8,83.8z"/>
<path fill="#0056A2" d="M186.3,91.8V83c0-2.4-1.7-3.9-4.3-3.9c-2.4,0-3.7,1.4-4.1,2.2c-0.6-1.4-1.9-2.2-3.8-2.2
	c-2.9,0-3.8,2.1-3.8,2.1v-1.7h-3.1v12.4h3.1v-7.6c0-1.5,1.1-2.6,2.5-2.6c1.7,0,2.4,1.1,2.4,2.9v7.3h3v-7.5c0-1.7,1.2-2.7,2.5-2.7
	c1.7,0,2.4,1.1,2.4,2.9v7.3H186.3L186.3,91.8z"/>
<path fill="#0056A2" d="M201.1,85.1c0-4.5-2.7-6-5-6c-2.6,0-3.7,1.5-3.7,1.5v-8.2h-3.1v18.1c0,0,1.9,1.4,5.2,1.4
	C198.2,92,201.1,89.5,201.1,85.1L201.1,85.1z M198,85.7c0,2.6-1.4,4.1-3.3,4.1c-1.5,0-2.3-0.8-2.3-0.8v-6c0,0,0.8-1.2,2.6-1.2
	C196.7,81.8,198,83.1,198,85.7L198,85.7z"/>
<path fill="#0056A2" d="M214.2,85.9c0-4.3-1.5-6.8-5.4-6.8c-3.8,0-6,2.8-6,6.4c0,4.1,2.1,6.6,6,6.6c3.2,0,5.2-2,5.2-2l-1.2-2.1
	c0,0-1.4,1.6-3.6,1.6c-2.4,0-3.4-2.2-3.4-3.6H214.2L214.2,85.9z M211.1,83.8h-5.2c0-0.4,0.4-2.4,2.7-2.4
	C210.9,81.4,211.1,83.2,211.1,83.8L211.1,83.8z"/>
<path fill="#0056A2" d="M224.5,79.5c0,0-0.6-0.4-1.7-0.4c-2.3,0-3.2,2.3-3.2,2.3v-2.1h-3.1v12.4h3.1V85c0-2.2,1.1-3,2.5-3
	c0.9,0,1.7,0.4,1.7,0.4L224.5,79.5L224.5,79.5z"/>
<path fill="#0056A2" d="M243.2,85.6c0-4.1-2.5-6.5-6.3-6.5c-3.6,0-6.3,2.5-6.3,6.6c0,3.9,2.5,6.3,6.2,6.3
	C240.5,92,243.2,89.5,243.2,85.6L243.2,85.6z M240.1,85.7c0,2.5-1.2,4-3.3,4c-2,0-3.2-1.6-3.2-4.1c0-2.5,1.3-4,3.2-4
	C238.9,81.6,240.1,83.2,240.1,85.7L240.1,85.7z"/>
<path fill="#0056A2" d="M253.8,72.8c0,0-1.1-0.6-2.9-0.6c-3,0-4.9,1.7-4.9,5.7v1.5h-1.8v2.2h1.8v10.1h3.1V81.7h3.2v-2.2h-3.2v-1.7
	c0-2.1,0.7-2.9,1.9-2.9c1.1,0,2.1,0.6,2.1,0.6L253.8,72.8L253.8,72.8z"/>
<polygon fill="#0056A2" points="275.8,91.6 275.8,73.6 273,73.6 273,86.3 263.3,73.4 260.7,73.8 260.7,91.8 263.6,91.8 263.6,79 
	273.4,92.1 275.8,91.6 "/>
<path fill="#0056A2" d="M291.1,85.6c0-4.1-2.5-6.5-6.3-6.5c-3.6,0-6.3,2.5-6.3,6.6c0,3.9,2.5,6.3,6.2,6.3
	C288.4,92,291.1,89.5,291.1,85.6L291.1,85.6z M288,85.7c0,2.5-1.2,4-3.3,4c-2,0-3.2-1.6-3.2-4.1c0-2.5,1.3-4,3.2-4
	C286.8,81.6,288,83.2,288,85.7L288,85.7z"/>
<path fill="#0056A2" d="M301.5,79.5c0,0-0.6-0.4-1.7-0.4c-2.3,0-3.2,2.3-3.2,2.3v-2.1h-3.1v12.4h3.1V85c0-2.2,1.1-3,2.5-3
	c0.9,0,1.7,0.4,1.7,0.4L301.5,79.5L301.5,79.5z"/>
<path fill="#0056A2" d="M314.1,91.8V72.5H311v7.2c0,0-0.9-0.6-2.7-0.6c-3.3,0-6,2.4-6,6.8c0,4.2,2.3,6.2,5,6.2
	c2.4,0,3.4-1.8,3.6-2.2v1.9H314.1L314.1,91.8z M311,86.8c0,2-1.4,2.8-2.6,2.8c-1.2,0-2.9-0.9-2.9-4.2c0-2.3,1.2-3.9,3.3-3.9
	c1.5,0,2.3,0.6,2.3,0.6V86.8L311,86.8z"/>
<polygon fill="#0056A2" points="327,80.7 326.5,79.4 316.9,79.4 316.9,81.9 322.7,81.9 316.5,90.6 316.8,91.8 326.8,91.8 
	326.8,89.3 320.9,89.3 327,80.7 "/>
<path fill="#0056A2" d="M340.2,91.8V79.4h-3.1v7.4c0,1.7-1,2.7-2.6,2.7c-1.8,0-2.3-1.1-2.3-2.7v-7.5h-3.1v8.4c0,2.7,1.6,4.2,4.1,4.2
	c3.1,0,4-2.2,4-2.2v2H340.2L340.2,91.8z"/>
<path fill="#0056A2" d="M353.1,90.7l-0.9-2.3c0,0-1.1,1.1-3.2,1.1c-2.2,0-3.3-2.1-3.3-3.8c0-2.1,0.8-4.1,3.4-4.1c1.8,0,3,1.1,3,1.1
	l1-2.5c0,0-1.4-1.1-4.1-1.1c-4,0-6.3,2.8-6.3,6.6c0,4.2,2.5,6.4,5.8,6.4C351.5,92,353.1,90.7,353.1,90.7L353.1,90.7z"/>
<polygon fill="#0056A2" points="366.4,91.3 361.7,85.1 366.4,80 363.4,79.3 358.2,85 358.2,72.5 355.2,72.5 355.2,91.8 358.2,91.8 
	358.2,85.3 363.2,92 366.4,91.3 "/>
<path fill="#0056A2" d="M378.7,85.9c0-4.3-1.5-6.8-5.4-6.8c-3.8,0-6,2.8-6,6.4c0,4.1,2.1,6.6,6,6.6c3.2,0,5.2-2,5.2-2l-1.2-2.1
	c0,0-1.4,1.6-3.6,1.6c-2.4,0-3.4-2.2-3.4-3.6H378.7L378.7,85.9z M375.5,83.8h-5.2c0-0.4,0.4-2.4,2.7-2.4
	C375.3,81.4,375.5,83.2,375.5,83.8L375.5,83.8z"/>
<path fill="#0056A2" d="M388.9,79.5c0,0-0.6-0.4-1.7-0.4c-2.3,0-3.2,2.3-3.2,2.3v-2.1H381v12.4h3.1V85c0-2.2,1.1-3,2.5-3
	c0.9,0,1.7,0.4,1.7,0.4L388.9,79.5L388.9,79.5z"/>
<path fill="#0056A2" d="M411.3,90.4V83h-3v5.8c0,0-0.9,0.6-3,0.6c-3.5,0-6.6-2-6.6-6.6c0-4.5,2.6-6.6,6.1-6.6c2.6,0,4.6,1.3,4.6,1.3
	l0.9-3c0,0-1.9-1.2-5.6-1.2c-4.8,0-9.4,3.2-9.4,9.5c0,6.9,4.9,9.3,9.5,9.3C409,92.1,411.3,90.4,411.3,90.4L411.3,90.4z"/>
<path fill="#0056A2" d="M422.4,79.5c0,0-0.6-0.4-1.7-0.4c-2.3,0-3.2,2.3-3.2,2.3v-2.1h-3.1v12.4h3.1V85c0-2.2,1.1-3,2.5-3
	c0.9,0,1.7,0.4,1.7,0.4L422.4,79.5L422.4,79.5z"/>
<path fill="#0056A2" d="M435.8,85.6c0-4.1-2.5-6.5-6.3-6.5c-3.6,0-6.3,2.5-6.3,6.6c0,3.9,2.5,6.3,6.2,6.3S435.8,89.5,435.8,85.6
	L435.8,85.6z M432.7,85.7c0,2.5-1.2,4-3.3,4c-2,0-3.2-1.6-3.2-4.1c0-2.5,1.3-4,3.2-4C431.5,81.6,432.7,83.2,432.7,85.7L432.7,85.7z"
	/>
<path fill="#0056A2" d="M449.2,91.8V79.4h-3.1v7.4c0,1.7-1,2.7-2.6,2.7c-1.8,0-2.3-1.1-2.3-2.7v-7.5h-3.1v8.4c0,2.7,1.6,4.2,4.1,4.2
	c3.1,0,4-2.2,4-2.2v2H449.2L449.2,91.8z"/>
<path fill="#0056A2" d="M464.3,85.2c0-4.2-2.4-6.1-5-6.1c-2.7,0-3.8,1.9-3.8,1.9v-1.6h-3v19.3h3.1v-7.4c0,0,1,0.8,2.8,0.8
	C461.5,92,464.3,89.4,464.3,85.2L464.3,85.2z M461.2,85.6c0,2.5-1.2,4.1-3.2,4.1c-1.6,0-2.4-1-2.4-1v-5.6c0,0,0.7-1.3,2.6-1.3
	C460,81.8,461.2,83.2,461.2,85.6L461.2,85.6z"/>
<path fill="#0056A2" d="M171.7,54.3V29h-6.3v15.2c0,3.5-2.1,5.6-5.3,5.6c-3.6,0-4.8-2.2-4.8-5.5V29H149v17.3c0,5.6,3.3,8.6,8.3,8.6
	c6.4,0,8.1-4.6,8.1-4.6v4.1H171.7L171.7,54.3z"/>
<path fill="#0056A2" d="M203.5,42.3c0-8.8-3.2-13.9-11.1-13.9c-7.9,0-12.2,5.8-12.2,13c0,8.5,4.4,13.5,12.4,13.5
	c6.6,0,10.6-4.2,10.6-4.2l-2.5-4.3c0,0-2.9,3.3-7.4,3.3c-4.9,0-6.9-4.5-6.9-7.4H203.5L203.5,42.3z M197.1,38h-10.6
	c0-0.8,0.9-5,5.5-5C196.7,33,197.1,36.8,197.1,38L197.1,38z"/>
<polygon fill="#0056A2" points="211.9,14.7 218.2,14.7 218.2,54.3 211.9,54.3 211.9,14.7 "/>
<path fill="#0056A2" d="M145.2,15.1c0,0-2.3-1.3-6-1.3c-6.2,0-10.1,3.5-10.1,11.8v3.2h-3.8v4.6h3.8v20.9h6.4V33.4h6.6v-4.6h-6.6
	v-3.5c0-4.4,1.4-6,4-6c2.4,0,4.3,1.3,4.3,1.3L145.2,15.1L145.2,15.1z"/>
<path fill="#0056A2" d="M235.7,54.3l-1.4-3.9l3.9-2.5c5-3.3,8.5-6.2,9.1-9.6c0.4-2.2-1-5.1-4.4-5.1c-2.5,0-4.1,1.1-5.6,2.3l-2.5-4.6
	c2.2-1.7,5.6-3.6,9.8-3.6c5.6,0,8.8,3.9,8.8,9.2c0,3.9-2.5,6.7-6.7,10.1l-2.7,1.9v0.1h11.3v5.8H235.7L235.7,54.3z"/>
<polygon fill="#0056A2" points="266,35 266,35 261.9,38.4 259.8,32.9 267.1,27.7 272.3,27.7 272.4,54.3 266,54.3 266,35 "/>
</svg>
